<?xml version="1.0" standalone="no"?><!DOCTYPE svg PUBLIC "-//W3C//DTD SVG 1.1//EN" "http://www.w3.org/Graphics/SVG/1.1/DTD/svg11.dtd"><svg t="1537515127531" class="icon" style="" viewBox="0 0 1040 1024" version="1.1" xmlns="http://www.w3.org/2000/svg" p-id="5462" data-spm-anchor-id="a313x.7781069.0.i24" xmlns:xlink="http://www.w3.org/1999/xlink" width="20.3125" height="20"><defs><style type="text/css"></style></defs><path d="M524.681234 207.01066c-62.219286 0-112.846441 49.408025-114.980957 111.321489h-145.178334c-16.162826 0-29.277828 13.115002-29.277828 29.277828 0 16.166987 13.115002 29.279909 29.277828 29.279909h32.329812V705.056206c0 61.609721 41.785346 111.931053 93.327889 111.931053h262.899211c51.544622 0 93.325808-50.01759 93.325808-111.931053V377.195708h29.279909c16.164906 0 29.277828-13.115002 29.277828-29.281989 0-16.162826-13.115002-29.277828-29.277828-29.277828H639.356368c-1.828694-62.217205-52.455849-111.625231-114.675134-111.625231z m-60.082689 111.321489c2.134517-31.718167 28.058699-56.42322 60.082689-56.42322s57.948172 24.705053 59.776866 56.42322h-119.859555z m-74.416821 443.761003c-18.301503 0-38.42754-23.483843-38.427539-57.034866V377.195708H691.512636v328.166321c0 33.551022-20.130197 57.034865-38.42962 57.034865H390.181724v-0.303742z m0 0" p-id="5463" fill="#dadada"></path><path d="M429.522571 691.639542c13.420825 0 24.401311-13.420825 24.401311-30.193216v-172.321645c0-16.774471-10.980486-30.195296-24.401311-30.195296-13.416664 0-24.39715 13.420825-24.39715 30.195296v172.321645c0 16.77239 10.674663 30.193215 24.39715 30.193216z m88.44929 0c13.420825 0 24.401311-13.420825 24.401311-30.193216v-172.321645c0-16.774471-10.980486-30.195296-24.401311-30.195296s-24.39923 13.420825-24.39923 30.195296v172.321645c-0.00208 16.77239 10.978405 30.193215 24.39923 30.193216z m93.022066 0c13.416664 0 24.39715-13.420825 24.39715-30.193216v-172.321645c0-16.774471-10.980486-30.195296-24.39715-30.195296-13.420825 0-24.401311 13.420825-24.40131 30.195296v172.321645c0.00208 16.77239 10.676744 30.193215 24.40131 30.193216z m0 0" p-id="5464" fill="#dadada"></path></svg>