<?xml version="1.0" standalone="no"?><!DOCTYPE svg PUBLIC "-//W3C//DTD SVG 1.1//EN" "http://www.w3.org/Graphics/SVG/1.1/DTD/svg11.dtd"><svg t="1538819578820" class="icon" style="" viewBox="0 0 1024 1024" version="1.1" xmlns="http://www.w3.org/2000/svg" p-id="3042" xmlns:xlink="http://www.w3.org/1999/xlink" width="15" height="15"><defs><style type="text/css"></style></defs><path d="M447.93 928.05A64.13 64.13 0 0 1 384 864V543.57L81.5 216.9A64 64 0 0 1 128 109h0.25l767.88 6a64 64 0 0 1 46.29 108L640 543.74V800a32 32 0 0 1-14.84 27l-145.72 92.62a32 32 0 0 1-2.85 1.61 64 64 0 0 1-28.66 6.82zM128 173l0.31 0.33 311.11 336A32 32 0 0 1 448 531v332.79l128-81.34V531a32 32 0 0 1 8.72-22l311.14-329.85 0.14-0.15h-0.25z m768.12 5.85" p-id="3043" fill="#666666"></path></svg>